<?xml version="1.0" encoding="UTF-8" standalone="no"?>
<!-- Created with Inkscape (http://www.inkscape.org/) -->

<svg
   xmlns:dc="http://purl.org/dc/elements/1.1/"
   xmlns:cc="http://creativecommons.org/ns#"
   xmlns:rdf="http://www.w3.org/1999/02/22-rdf-syntax-ns#"
   xmlns:svg="http://www.w3.org/2000/svg"
   xmlns="http://www.w3.org/2000/svg"
   xmlns:sodipodi="http://sodipodi.sourceforge.net/DTD/sodipodi-0.dtd"
   xmlns:inkscape="http://www.inkscape.org/namespaces/inkscape"
   width="210mm"
   height="297mm"
   viewBox="0 0 744.09448819 1052.3622047"
   id="svg2"
   version="1.1"
   inkscape:version="0.91 r13725"
   sodipodi:docname="chengs_beetle.ink.svg">
  <defs
     id="defs4" />
  <sodipodi:namedview
     id="base"
     pagecolor="#ffffff"
     bordercolor="#666666"
     borderopacity="1.0"
     inkscape:pageopacity="0.0"
     inkscape:pageshadow="2"
     inkscape:zoom="0.49497475"
     inkscape:cx="100.48086"
     inkscape:cy="337.34849"
     inkscape:document-units="px"
     inkscape:current-layer="layer3"
     showgrid="false"
     inkscape:window-width="1278"
     inkscape:window-height="906"
     inkscape:window-x="681"
     inkscape:window-y="142"
     inkscape:window-maximized="0" />
  <metadata
     id="metadata7">
    <rdf:RDF>
      <cc:Work
         rdf:about="">
        <dc:format>image/svg+xml</dc:format>
        <dc:type
           rdf:resource="http://purl.org/dc/dcmitype/StillImage" />
        <dc:title></dc:title>
      </cc:Work>
    </rdf:RDF>
  </metadata>
  <g
     inkscape:groupmode="layer"
     id="layer2"
     inkscape:label="curves">
    <path
       style="fill:#ffff00;fill-opacity:1;fill-rule:evenodd;stroke:none;stroke-width:1px;stroke-linecap:butt;stroke-linejoin:miter;stroke-opacity:1"
       d="m 356.79622,302.83499 c 96.43277,2.14281 197.68733,123.72422 165.71429,131.42857 -118.57143,28.57144 -79.21633,87.28708 -162.85714,87.14286 -83.64081,-0.14423 -81.42857,-58.57143 -165.71429,-90 -42.8543,-15.97956 66.42437,-130.71424 162.85714,-128.57143 z"
       id="path4290"
       inkscape:connector-curvature="0"
       sodipodi:nodetypes="zszsz" />
    <path
       style="fill:#0000ff;fill-rule:evenodd;stroke:none;stroke-width:1px;stroke-linecap:butt;stroke-linejoin:miter;stroke-opacity:1"
       d="m 359.65337,521.40642 c 63.25342,16.95902 87.2703,-92.97487 161.42857,-88.57143 47.83149,2.84018 111.53266,314.67807 85.71429,407.14286 -27.77276,99.46408 -182.57632,140.84198 -245.71429,92.85714 z"
       id="path4293"
       inkscape:connector-curvature="0"
       sodipodi:nodetypes="csscc" />
    <path
       style="fill:#ff0000;fill-rule:evenodd;stroke:none;stroke-width:1px;stroke-linecap:butt;stroke-linejoin:miter;stroke-opacity:1"
       d="M 360.4853,524.33946 C 297.23188,541.29849 273.215,431.36459 199.05673,435.76803 151.22524,438.60821 87.524067,750.44611 113.34244,842.9109 141.1152,942.37493 295.91876,983.75293 359.05673,935.76803 Z"
       id="path4293-7"
       inkscape:connector-curvature="0"
       sodipodi:nodetypes="csscc" />
  </g>
  <g
     inkscape:groupmode="layer"
     id="layer3"
     inkscape:label="quads"
     style="display:none">
    <path
       style="fill:none;fill-rule:evenodd;stroke:#ff6600;stroke-width:7.08661413;stroke-linecap:butt;stroke-linejoin:miter;stroke-miterlimit:4;stroke-dasharray:none;stroke-opacity:1"
       d="m 670.8567,568.571 c 4.40809,6.32313 7.51831,12.10152 8.76708,29.94056 7.81764,-12.24326 5.54187,-11.77577 21.28227,-22.32869 -15.65789,-1.16316 -17.05684,-2.02738 -30.04935,-7.61187 z"
       id="path4319"
       inkscape:connector-curvature="0"
       sodipodi:nodetypes="cccc" />
    <path
       style="fill:none;fill-rule:evenodd;stroke:#ff6600;stroke-width:7.08661413;stroke-linecap:butt;stroke-linejoin:miter;stroke-miterlimit:4;stroke-dasharray:none;stroke-opacity:1"
       d="m 492.96236,312.25895 c -1.83665,-7.48598 -2.65852,-13.99657 2.59747,-31.08942 -11.70054,8.60873 -9.40904,8.99172 -27.89288,13.17167 14.18973,6.72115 15.18385,8.03099 25.29541,17.91775 z"
       id="path4319-6"
       inkscape:connector-curvature="0"
       sodipodi:nodetypes="cccc" />
    <path
       style="fill:none;fill-rule:evenodd;stroke:#ff6600;stroke-width:7.08661413;stroke-linecap:butt;stroke-linejoin:miter;stroke-miterlimit:4;stroke-dasharray:none;stroke-opacity:1"
       d="m 536.34061,981.37697 c -6.5397,4.0799 -12.46918,6.8914 -30.34869,7.22884 11.82867,8.43182 11.47784,6.13517 21.21434,22.39329 1.96013,-15.57825 2.89456,-16.93131 9.13435,-29.62213 z"
       id="path4319-5"
       inkscape:connector-curvature="0"
       sodipodi:nodetypes="cccc" />
    <path
       style="fill:none;fill-rule:evenodd;stroke:#ff6600;stroke-width:7.08661413;stroke-linecap:butt;stroke-linejoin:miter;stroke-miterlimit:4;stroke-dasharray:none;stroke-opacity:1"
       d="m 438.15327,406.6503 c 3.25012,6.98926 5.31594,13.21788 3.46587,31.00463 9.81415,-10.7096 7.49184,-10.64207 24.81791,-18.31878 -15.2219,-3.84916 -16.45063,-4.94194 -28.28378,-12.68585 z"
       id="path4319-6-3"
       inkscape:connector-curvature="0"
       sodipodi:nodetypes="cccc" />
    <path
       style="fill:none;fill-rule:evenodd;stroke:#ff6600;stroke-width:7.08661413;stroke-linecap:butt;stroke-linejoin:miter;stroke-miterlimit:4;stroke-dasharray:none;stroke-opacity:1"
       d="m 430.85727,525.45443 c -4.26329,6.42164 -8.49634,11.43608 -24.63127,19.14679 14.25838,2.77695 12.98805,0.83173 28.58276,11.59876 -4.66645,-14.99154 -4.37617,-16.61009 -3.95149,-30.74555 z"
       id="path4319-6-1"
       inkscape:connector-curvature="0"
       sodipodi:nodetypes="cccc" />
    <path
       style="fill:none;fill-rule:evenodd;stroke:#ff6600;stroke-width:7.08661413;stroke-linecap:butt;stroke-linejoin:miter;stroke-miterlimit:4;stroke-dasharray:none;stroke-opacity:1"
       d="m 368.4824,735.65553 c 12.81056,-7.48598 19.05976,-19.04733 6.63808,-32.09957 -13.72084,-5.02833 -23.55118,-7.17072 -31.93349,14.18182 -0.45748,10.76176 7.10263,19.14267 25.29541,17.91775 z"
       id="path4319-6-7"
       inkscape:connector-curvature="0"
       sodipodi:nodetypes="cccc" />
  </g>
  <g
     inkscape:label="control"
     inkscape:groupmode="layer"
     id="layer1"
     style="display:inline">
    <path
       style="fill:none;fill-rule:evenodd;stroke:#00ffff;stroke-width:7.08661413;stroke-linecap:butt;stroke-linejoin:miter;stroke-miterlimit:4;stroke-dasharray:14.17322835, 7.08661417, 3.54330709, 7.08661417;stroke-dashoffset:0;stroke-opacity:1"
       d="m 359.65064,225.69815 4.29116,788.55935"
       id="path4213"
       inkscape:connector-curvature="0" />
    <path
       style="fill:#ff00ff;fill-rule:evenodd;stroke:none;stroke-width:1px;stroke-linecap:butt;stroke-linejoin:miter;stroke-opacity:1"
       d="m 77.58666,116.2295 c 31.87085,0.2132 32.21193,22.67997 45.27048,28.98985 -15.00976,3.84051 -16.00855,24.34001 -47.08158,24.87745 C 44.70254,170.63424 51.74326,147.60097 32.857143,143.79078 50.83157,135.33745 45.7158,116.0163 77.58666,116.2295 Z m -1.13257,11.41017 c -19.14849,0.14471 -19.99265,27.3396 0.82066,27.43908 20.8133,0.0995 18.32782,-27.58379 -0.82066,-27.43908 z"
       id="path4174"
       inkscape:connector-curvature="0"
       sodipodi:nodetypes="zczczzzz" />
    <path
       style="fill:#ff00ff;fill-rule:evenodd;stroke:none;stroke-width:1px;stroke-linecap:butt;stroke-linejoin:miter;stroke-opacity:1"
       d="m 72.438727,25.536351 c 22.27441,-0.29188 32.596083,16.46333 32.131063,29.20957 -0.46503,12.74623 -8.825443,30.36811 -32.069793,30.14794 -23.24435,-0.22017 -32.93553,-16.0882 -32.87073,-29.76541 0.0648,-13.67721 10.53505,-29.30022 32.80946,-29.5921 z m -0.62749,15.31336 c -19.14849,0.14471 -19.99265,27.3396 0.82066,27.43908 20.8133,0.0995 18.32782,-27.58379 -0.82066,-27.43908 z"
       id="path4174-0"
       inkscape:connector-curvature="0"
       sodipodi:nodetypes="zzzzzzzz" />
    <path
       style="fill:#ff00ff;fill-rule:evenodd;stroke:none;stroke-width:1px;stroke-linecap:butt;stroke-linejoin:miter;stroke-opacity:1"
       d="m 522.89422,404.84451 c 31.87086,0.2132 32.21194,22.67997 45.27048,28.98985 -15.00976,3.84051 -16.00855,24.34001 -47.08158,24.87745 -31.07302,0.53744 -24.0323,-22.49583 -42.91842,-26.30602 17.97443,-8.45333 12.85866,-27.77448 44.72952,-27.56128 z m -1.13257,11.41017 c -19.14849,0.14471 -19.99265,27.3396 0.82066,27.43908 20.8133,0.0995 18.32782,-27.58379 -0.82066,-27.43908 z"
       id="path4174-9"
       inkscape:connector-curvature="0"
       sodipodi:nodetypes="zczczzzz" />
    <path
       style="fill:#ff00ff;fill-rule:evenodd;stroke:none;stroke-width:1px;stroke-linecap:butt;stroke-linejoin:miter;stroke-opacity:1"
       d="m 332.73267,302.39273 c -0.63392,-31.86527 21.81585,-32.80333 27.77644,-46.02496 4.23807,14.90239 24.75688,15.35601 26.11996,46.40378 1.36309,31.04776 -21.84917,24.62169 -25.15607,43.60239 -8.92806,-17.7434 -28.10642,-12.11594 -28.74033,-43.98121 z m 11.43624,0.82892 c 0.65357,19.13788 27.86129,19.25898 27.40757,-1.54962 -0.45369,-20.80859 -28.06115,-17.58825 -27.40757,1.54962 z"
       id="path4174-99"
       inkscape:connector-curvature="0"
       sodipodi:nodetypes="zczczzzz" />
    <path
       style="fill:#00ffff;fill-rule:evenodd;stroke:none;stroke-width:1px;stroke-linecap:butt;stroke-linejoin:miter;stroke-opacity:1"
       d="m 359.98521,494.58567 c 22.27441,-0.29188 32.59608,16.46333 32.13106,29.20957 -0.46503,12.74623 -8.82544,30.36811 -32.06979,30.14794 -23.24435,-0.22017 -32.93553,-16.0882 -32.87073,-29.76541 0.0648,-13.67721 10.53505,-29.30022 32.80946,-29.5921 z m -0.62749,15.31336 c -19.14849,0.14471 -19.99265,27.3396 0.82066,27.43908 20.8133,0.0995 18.32782,-27.58379 -0.82066,-27.43908 z"
       id="path4174-0-6"
       inkscape:connector-curvature="0"
       sodipodi:nodetypes="zzzzzzzz" />
    <path
       style="fill:#ff00ff;fill-rule:evenodd;stroke:none;stroke-width:1px;stroke-linecap:butt;stroke-linejoin:miter;stroke-opacity:1"
       d="m 335.54005,925.28544 c -0.63392,-31.86527 21.81585,-32.80333 27.77644,-46.02496 4.23807,14.90239 24.75688,15.35601 26.11996,46.40378 1.36309,31.04777 -21.84917,24.62167 -25.15607,43.60237 -8.92806,-17.7434 -28.10642,-12.1159 -28.74033,-43.98119 z m 11.43624,0.82892 c 0.65357,19.13787 27.86129,19.25897 27.40757,-1.54962 -0.45369,-20.80859 -28.06115,-17.58825 -27.40757,1.54962 z"
       id="path4174-99-3"
       inkscape:connector-curvature="0"
       sodipodi:nodetypes="zczczzzz" />
    <path
       style="fill:#ff00ff;fill-rule:evenodd;stroke:none;stroke-width:1px;stroke-linecap:butt;stroke-linejoin:miter;stroke-opacity:1"
       d="m 607.12807,810.29995 c 22.27441,-0.29188 32.59608,16.46333 32.13106,29.20957 -0.46503,12.74623 -8.82544,30.36811 -32.06979,30.14794 -23.24435,-0.22017 -32.93553,-16.0882 -32.87073,-29.76541 0.0648,-13.67721 10.53505,-29.30022 32.80946,-29.5921 z m -0.62749,15.31336 c -19.14849,0.14471 -19.99265,27.3396 0.82066,27.43908 20.8133,0.0995 18.32782,-27.58379 -0.82066,-27.43908 z"
       id="path4174-0-6-9"
       inkscape:connector-curvature="0"
       sodipodi:nodetypes="zzzzzzzz" />
    <path
       style="fill:#00ff00;fill-rule:evenodd;stroke:none;stroke-width:1px;stroke-linecap:butt;stroke-linejoin:miter;stroke-opacity:1"
       d="m 193.6686,405.89759 c 31.87086,0.2132 32.21194,22.67997 45.27048,28.98985 -15.00976,3.84051 -16.00855,24.34001 -47.08158,24.87745 -31.07302,0.53744 -24.0323,-22.49583 -42.91842,-26.30602 17.97443,-8.45333 12.85866,-27.77448 44.72952,-27.56128 z m -1.13257,11.41017 c -19.14849,0.14471 -19.99265,27.3396 0.82066,27.43908 20.8133,0.0995 18.32782,-27.58379 -0.82066,-27.43908 z"
       id="path4174-9-8"
       inkscape:connector-curvature="0"
       sodipodi:nodetypes="zczczzzz" />
    <path
       style="fill:#00ff00;fill-rule:evenodd;stroke:none;stroke-width:1px;stroke-linecap:butt;stroke-linejoin:miter;stroke-opacity:1"
       d="m 119.98521,826.01424 c 22.27441,-0.29188 32.59608,16.46333 32.13106,29.20957 -0.46503,12.74623 -8.82544,30.36811 -32.06979,30.14794 -23.244345,-0.22017 -32.935521,-16.0882 -32.870721,-29.76541 0.0648,-13.67721 10.535046,-29.30022 32.809451,-29.5921 z m -0.62749,15.31336 c -19.14849,0.14471 -19.992645,27.3396 0.82066,27.43908 20.8133,0.0995 18.32782,-27.58379 -0.82066,-27.43908 z"
       id="path4174-0-6-9-7"
       inkscape:connector-curvature="0"
       sodipodi:nodetypes="zzzzzzzz" />
    <text
       xml:space="preserve"
       style="font-style:normal;font-weight:normal;font-size:40px;line-height:125%;font-family:sans-serif;letter-spacing:0px;word-spacing:0px;fill:#000000;fill-opacity:1;stroke:none;stroke-width:1px;stroke-linecap:butt;stroke-linejoin:miter;stroke-opacity:1"
       x="145.71429"
       y="70.933632"
       id="text4310"
       sodipodi:linespacing="125%"><tspan
         sodipodi:role="line"
         id="tspan4312"
         x="145.71429"
         y="70.933632">free control point</tspan></text>
    <text
       xml:space="preserve"
       style="font-style:normal;font-weight:normal;font-size:40px;line-height:125%;font-family:sans-serif;letter-spacing:0px;word-spacing:0px;fill:#000000;fill-opacity:1;stroke:none;stroke-width:1px;stroke-linecap:butt;stroke-linejoin:miter;stroke-opacity:1"
       x="152.85715"
       y="159.50507"
       id="text4314"
       sodipodi:linespacing="125%"><tspan
         sodipodi:role="line"
         id="tspan4316"
         x="152.85715"
         y="159.50507">constrained control point</tspan></text>
    <path
       style="display:inline;fill:#ff00ff;fill-rule:evenodd;stroke:none;stroke-width:1px;stroke-linecap:butt;stroke-linejoin:miter;stroke-opacity:1"
       d="m 439.74821,451.44304 c 22.27441,-0.29188 32.59608,16.46333 32.13106,29.20957 -0.46503,12.74623 -8.82544,30.36811 -32.06979,30.14794 -23.24435,-0.22017 -32.93553,-16.0882 -32.87073,-29.76541 0.0648,-13.67721 10.53505,-29.30022 32.80946,-29.5921 z m -0.62749,15.31336 c -19.14849,0.14471 -19.99265,27.3396 0.82066,27.43908 20.8133,0.0995 18.32782,-27.58379 -0.82066,-27.43908 z"
       id="path4174-0-6-9-9"
       inkscape:connector-curvature="0"
       sodipodi:nodetypes="zzzzzzzz" />
    <path
       style="display:inline;fill:#00ff00;fill-rule:evenodd;stroke:none;stroke-width:1px;stroke-linecap:butt;stroke-linejoin:miter;stroke-opacity:1"
       d="m 275.09333,452.95827 c 22.27441,-0.29188 32.59608,16.46333 32.13106,29.20957 -0.46503,12.74623 -8.82544,30.36811 -32.06979,30.14794 -23.24434,-0.22017 -32.93552,-16.0882 -32.87072,-29.76541 0.0648,-13.67721 10.53505,-29.30022 32.80945,-29.5921 z m -0.62749,15.31336 c -19.14849,0.14471 -19.99264,27.3396 0.82066,27.43908 20.8133,0.0995 18.32782,-27.58379 -0.82066,-27.43908 z"
       id="path4174-0-6-9-7-5"
       inkscape:connector-curvature="0"
       sodipodi:nodetypes="zzzzzzzz" />
  </g>
</svg>
