<?xml version="1.0" encoding="UTF-8" standalone="no"?>
<!-- Created with Inkscape (http://www.inkscape.org/) -->

<svg
   xmlns:dc="http://purl.org/dc/elements/1.1/"
   xmlns:cc="http://creativecommons.org/ns#"
   xmlns:rdf="http://www.w3.org/1999/02/22-rdf-syntax-ns#"
   xmlns:svg="http://www.w3.org/2000/svg"
   xmlns="http://www.w3.org/2000/svg"
   xmlns:xlink="http://www.w3.org/1999/xlink"
   xmlns:sodipodi="http://sodipodi.sourceforge.net/DTD/sodipodi-0.dtd"
   xmlns:inkscape="http://www.inkscape.org/namespaces/inkscape"
   width="210mm"
   height="297mm"
   viewBox="0 0 744.09448819 1052.3622047"
   id="svg4323"
   version="1.1"
   inkscape:version="0.91 r13725"
   sodipodi:docname="flowerfield.svg">
  <defs
     id="defs4325" />
  <sodipodi:namedview
     id="base"
     pagecolor="#ffffff"
     bordercolor="#666666"
     borderopacity="1.0"
     inkscape:pageopacity="0.0"
     inkscape:pageshadow="2"
     inkscape:zoom="15.839192"
     inkscape:cx="22.247502"
     inkscape:cy="24.928813"
     inkscape:document-units="px"
     inkscape:current-layer="layer1"
     showgrid="false"
     inkscape:window-width="1920"
     inkscape:window-height="1020"
     inkscape:window-x="0"
     inkscape:window-y="31"
     inkscape:window-maximized="1" />
  <metadata
     id="metadata4328">
    <rdf:RDF>
      <cc:Work
         rdf:about="">
        <dc:format>image/svg+xml</dc:format>
        <dc:type
           rdf:resource="http://purl.org/dc/dcmitype/StillImage" />
        <dc:title />
      </cc:Work>
    </rdf:RDF>
  </metadata>
  <g
     inkscape:label="Layer 1"
     inkscape:groupmode="layer"
     id="layer1">
    <path
       style="fill:none;fill-rule:evenodd;stroke:#000000;stroke-width:1;stroke-linecap:butt;stroke-linejoin:miter;stroke-opacity:1;stroke-miterlimit:4;stroke-dasharray:none"
       d="m 63.602526,1029.1067 c -2.636811,10e-4 -4.207887,-7.8962 -4.280961,-10.0124 -0.07308,-2.1162 0.641757,-5.9599 4.061739,-5.9548 3.419983,0.01 4.028424,3.003 4.101497,6.1452 0.07308,3.1421 -1.245464,9.821 -3.882275,9.822 z"
       id="path4871-6"
       inkscape:connector-curvature="0"
       sodipodi:nodetypes="zszsz" />
    <path
       style="fill:none;fill-rule:evenodd;stroke:#000000;stroke-width:1;stroke-linecap:butt;stroke-linejoin:miter;stroke-opacity:1;stroke-miterlimit:4;stroke-dasharray:none"
       d="m 65.717347,1031.0694 c -0.82178,-2.5055 6.191504,-6.4592 8.179534,-7.1881 1.98803,-0.729 5.86308,-1.2477 6.92411,2.0034 1.05635,3.2528 -1.59797,4.7638 -4.5609,5.8126 -2.96282,1.0486 -9.720006,1.8772 -10.542744,-0.6279 z"
       id="path4871-9-1"
       inkscape:connector-curvature="0"
       sodipodi:nodetypes="zszsz"
       inkscape:transform-center-x="-7.6129314"
       inkscape:transform-center-y="-3.0239197" />
    <path
       style="fill:none;fill-rule:evenodd;stroke:#000000;stroke-width:1;stroke-linecap:butt;stroke-linejoin:miter;stroke-opacity:1;stroke-miterlimit:4;stroke-dasharray:none"
       d="m 64.973225,1033.9619 c 1.947519,-1.7775 8.431066,2.9954 9.911616,4.5093 1.48059,1.5137 3.54381,4.8346 1.01446,7.1363 -2.53277,2.2982 -4.999919,0.4977 -7.172162,-1.7739 -2.172153,-2.2715 -5.700781,-8.0934 -3.753914,-9.8717 z"
       id="path4871-9-8-7"
       inkscape:connector-curvature="0"
       sodipodi:nodetypes="zszsz"
       inkscape:transform-center-x="-5.7480282"
       inkscape:transform-center-y="6.1468425" />
    <path
       style="fill:none;fill-rule:evenodd;stroke:#000000;stroke-width:1;stroke-linecap:butt;stroke-linejoin:miter;stroke-opacity:1;stroke-miterlimit:4;stroke-dasharray:none"
       d="m 61.752132,1031.2433 c 0.861627,-2.4921 -6.087739,-6.5571 -8.063895,-7.3176 -1.976153,-0.7606 -5.84244,-1.341 -6.955167,1.8928 -1.108083,3.2355 1.521812,4.7886 4.467653,5.8845 2.945733,1.0958 9.688847,2.032 10.551409,-0.4597 z"
       id="path4871-9-3-6"
       inkscape:connector-curvature="0"
       sodipodi:nodetypes="zszsz"
       inkscape:transform-center-x="7.5786539"
       inkscape:transform-center-y="-3.145661" />
    <path
       style="fill:none;fill-rule:evenodd;stroke:#000000;stroke-width:1;stroke-linecap:butt;stroke-linejoin:miter;stroke-opacity:1;stroke-miterlimit:4;stroke-dasharray:none"
       d="m 62.49583,1033.7551 c -2.035794,-1.6757 -8.267006,3.4223 -9.668284,5.0098 -1.401309,1.5874 -3.292163,5.0094 -0.648521,7.1789 2.646883,2.1657 5.018821,0.2416 7.072165,-2.138 2.053259,-2.3796 5.279824,-8.3741 3.24464,-10.0507 z"
       id="path4871-9-8-8-8"
       inkscape:connector-curvature="0"
       sodipodi:nodetypes="zszsz"
       inkscape:transform-center-x="5.4711701"
       inkscape:transform-center-y="6.3840095" />
    <path
       style="fill:none;fill-rule:evenodd;stroke:#000000;stroke-width:1;stroke-linecap:butt;stroke-linejoin:miter;stroke-opacity:1;stroke-miterlimit:4;stroke-dasharray:none"
       d="m 105.52386,1029.8643 c -2.63681,10e-4 -4.20789,-7.8962 -4.28096,-10.0124 -0.0731,-2.1162 0.64175,-5.9599 4.06173,-5.9548 3.41999,0.01 4.02843,3.003 4.1015,6.1452 0.0731,3.1421 -1.24546,9.821 -3.88227,9.822 z"
       id="path4871-6-6"
       inkscape:connector-curvature="0"
       sodipodi:nodetypes="zszsz" />
    <path
       style="fill:none;fill-rule:evenodd;stroke:#000000;stroke-width:1;stroke-linecap:butt;stroke-linejoin:miter;stroke-opacity:1;stroke-miterlimit:4;stroke-dasharray:none"
       d="m 107.63868,1031.827 c -0.82178,-2.5055 6.1915,-6.4592 8.17953,-7.1881 1.98803,-0.729 5.86308,-1.2477 6.92411,2.0034 1.05635,3.2528 -1.59797,4.7638 -4.5609,5.8126 -2.96282,1.0486 -9.72,1.8772 -10.54274,-0.6279 z"
       id="path4871-9-1-0"
       inkscape:connector-curvature="0"
       sodipodi:nodetypes="zszsz"
       inkscape:transform-center-x="-7.6129314"
       inkscape:transform-center-y="-3.0239197" />
    <path
       style="fill:none;fill-rule:evenodd;stroke:#000000;stroke-width:1;stroke-linecap:butt;stroke-linejoin:miter;stroke-opacity:1;stroke-miterlimit:4;stroke-dasharray:none"
       d="m 106.89456,1034.7195 c 1.94751,-1.7775 8.43106,2.9954 9.91161,4.5093 1.48059,1.5137 3.54381,4.8346 1.01446,7.1363 -2.53277,2.2982 -4.99992,0.4977 -7.17216,-1.7739 -2.17215,-2.2715 -5.70078,-8.0934 -3.75391,-9.8717 z"
       id="path4871-9-8-7-1"
       inkscape:connector-curvature="0"
       sodipodi:nodetypes="zszsz"
       inkscape:transform-center-x="-5.7480282"
       inkscape:transform-center-y="6.1468425" />
    <path
       style="fill:none;fill-rule:evenodd;stroke:#000000;stroke-width:1;stroke-linecap:butt;stroke-linejoin:miter;stroke-opacity:1;stroke-miterlimit:4;stroke-dasharray:none"
       d="m 103.67346,1032.0009 c 0.86163,-2.4921 -6.087736,-6.5571 -8.063892,-7.3176 -1.976153,-0.7606 -5.84244,-1.341 -6.955167,1.8928 -1.108083,3.2355 1.521812,4.7886 4.467653,5.8845 2.945733,1.0958 9.688846,2.032 10.551406,-0.4597 z"
       id="path4871-9-3-6-2"
       inkscape:connector-curvature="0"
       sodipodi:nodetypes="zszsz"
       inkscape:transform-center-x="7.5786539"
       inkscape:transform-center-y="-3.145661" />
    <path
       style="fill:none;fill-rule:evenodd;stroke:#000000;stroke-width:1;stroke-linecap:butt;stroke-linejoin:miter;stroke-opacity:1;stroke-miterlimit:4;stroke-dasharray:none"
       d="m 104.41716,1034.5127 c -2.03579,-1.6757 -8.267005,3.4223 -9.668283,5.0098 -1.401309,1.5874 -3.292163,5.0094 -0.648521,7.1789 2.646883,2.1657 5.018821,0.2416 7.072164,-2.138 2.05326,-2.3796 5.27982,-8.3741 3.24464,-10.0507 z"
       id="path4871-9-8-8-8-7"
       inkscape:connector-curvature="0"
       sodipodi:nodetypes="zszsz"
       inkscape:transform-center-x="5.4711701"
       inkscape:transform-center-y="6.3840095" />
    <path
       style="fill:none;fill-rule:evenodd;stroke:#000000;stroke-width:1;stroke-linecap:butt;stroke-linejoin:miter;stroke-miterlimit:4;stroke-dasharray:none;stroke-opacity:1"
       d="m -11.669153,1050.7175 c 2.4524746,-1.6062 2.2653304,-3.6998 1.567253,-5.9499 -0.698077,-2.2502 -2.349315,-8.6434 2.6331677,-8.7227 4.9824829,-0.079 3.8052096,6.0834 3.2086398,8.8684 -0.6582988,3.0732 -0.5758212,3.9282 1.4302251,5.7149"
       id="path4871-1"
       inkscape:connector-curvature="0"
       sodipodi:nodetypes="czzsc" />
    <path
       style="fill:none;fill-rule:evenodd;stroke:#00ffff;stroke-width:0.5;stroke-linecap:butt;stroke-linejoin:miter;stroke-opacity:1;stroke-miterlimit:4;stroke-dasharray:none"
       d="m 21.339473,1031.6541 42.300137,-0.2526 42.17387,0.3788"
       id="path5018"
       inkscape:connector-curvature="0" />
    <path
       style="fill:none;fill-rule:evenodd;stroke:#000000;stroke-width:1;stroke-linecap:butt;stroke-linejoin:miter;stroke-miterlimit:4;stroke-dasharray:none;stroke-opacity:1"
       d="m 16.764069,1025.9483 c 2.452475,-1.6062 2.265331,-3.6998 1.567253,-5.9499 -0.698077,-2.2502 -2.349315,-8.6434 2.633168,-8.7227 4.982483,-0.079 3.80521,6.0834 3.20864,8.8684 -0.658299,3.0732 -0.575821,3.9282 1.430225,5.7149"
       id="path4871-1-6"
       inkscape:connector-curvature="0"
       sodipodi:nodetypes="czzsc"
       inkscape:tile-cx="21.309981"
       inkscape:tile-cy="1018.2959"
       inkscape:tile-w="9.4457789"
       inkscape:tile-h="15.59159"
       inkscape:tile-x0="16.616396"
       inkscape:tile-y0="1010.4593" />
    <use
       x="0"
       y="0"
       inkscape:tiled-clone-of="#path4871-1-6"
       xlink:href="#path4871-1-6"
       id="use4179"
       transform="matrix(-0.81868009,0.57424987,-0.57424987,-0.81868009,631.42044,1864.2257)"
       width="100%"
       height="100%" />
    <use
       x="0"
       y="0"
       inkscape:tiled-clone-of="#path4871-1-6"
       xlink:href="#path4871-1-6"
       transform="matrix(0.30901699,0.95105652,-0.95105652,0.30901699,996.11034,692.72231)"
       id="use4181"
       width="100%"
       height="100%" />
    <use
       x="0"
       y="0"
       inkscape:tiled-clone-of="#path4871-1-6"
       xlink:href="#path4871-1-6"
       transform="matrix(-0.80901699,-0.58778525,0.58778525,-0.80901699,-568.14566,1878.9529)"
       id="use4185"
       width="100%"
       height="100%" />
    <use
       x="0"
       y="0"
       inkscape:tiled-clone-of="#path4871-1-6"
       xlink:href="#path4871-1-6"
       transform="matrix(0.30901699,-0.95105652,0.95105652,0.30901699,-966.69621,733.24054)"
       id="use4187"
       width="100%"
       height="100%" />
  </g>
</svg>
